# xmcd CD database file
#
# Track frame offsets:
#	150
#	6494
#	19707
#	34047
#	54637
#	70740
#	83802
#	99586
#	116673
#	134855
#
# Disc length: 2049 seconds
#
# Revision: 1
# Processed by: cddbd v1.5.2PL0 Copyright (c) Steve Scherf et al.
# Submitted via: CDex 1.70beta2
#
DISCID=8707ff0a
DTITLE=Gentle Faith - Gentle Faith
DYEAR=1976
DGENRE=Bluegrass
TTITLE0=Simple Song
TTITLE1=Living in the Sonshine
TTITLE2=The Whole Lump of Dough
TTITLE3=It's So Good to Know
TTITLE4=Jerusalem
TTITLE5=Noah
TTITLE6=My Love for You
TTITLE7=Goin' Back Home
TTITLE8=Turnaround
TTITLE9=Home
EXTD=YEAR: 1976
EXTT0=
EXTT1=
EXTT2=
EXTT3=
EXTT4=
EXTT5=
EXTT6=
EXTT7=
EXTT8=
EXTT9=
PLAYORDER=
